<svg xmlns="http://www.w3.org/2000/svg" viewBox="0 0 1270 1695.7"><defs><style>.cls-1{fill:#fff;}.cls-2{fill:#75c6b6;}.cls-3{fill:#74161b;}</style></defs><g id="圖層_1" data-name="圖層 1"><path class="cls-1" d="M948.3,723.8a132.3,132.3,0,0,1,50.3-10c75.2,0,136.4,63.1,136.4,140.6v187.5c0,286.1-224.3,518.8-500,518.8S135,1328,135,1041.9V760.7c0-77.5,61.1-140.6,136.4-140.6a131.8,131.8,0,0,1,45.4,8.1V288.8c0-77.5,61.2-140.6,136.4-140.6s136.3,63.1,136.3,140.6V534.4a132,132,0,0,1,45.5-8.1c62.8,0,115.8,44,131.5,103.7a134.2,134.2,0,0,1,50.3-9.9C879.6,620.1,932.6,664.1,948.3,723.8Zm95.8,318.1V854.4c0-25.8-20.4-46.8-45.5-46.8s-45.4,21-45.4,46.8v46.9h-91V760.7c0-25.8-20.3-46.9-45.4-46.9s-45.4,21.1-45.4,46.9V901.3h-91V667c0-25.9-20.3-46.9-45.4-46.9s-45.5,21-45.5,46.9V901.3H498.6V288.8c0-25.8-20.4-46.9-45.4-46.9s-45.5,21.1-45.5,46.9v800H316.8V760.7c0-25.8-20.4-46.9-45.4-46.9s-45.5,21.1-45.5,46.9v281.2c0,234.4,183.5,425.1,409.1,425.1S1044.1,1276.3,1044.1,1041.9Z"/><path class="cls-1" d="M862.2,760.7V901.3h91V854.4c0-25.8,20.4-46.8,45.4-46.8s45.5,21,45.5,46.8v187.5c0,234.4-183.5,425.1-409.1,425.1s-409.1-190.7-409.1-425.1V760.7c0-25.8,20.4-46.9,45.5-46.9s45.4,21.1,45.4,46.9v328.1h90.9v-800c0-25.8,20.4-46.9,45.5-46.9s45.4,21.1,45.4,46.9V901.3h90.9V667c0-25.9,20.4-46.9,45.5-46.9s45.4,21,45.4,46.9V901.3h91V760.7c0-25.8,20.3-46.9,45.4-46.9S862.2,734.9,862.2,760.7Z"/><path class="cls-1" d="M635,1695.7c-350.1,0-635-293.3-635-653.8V760.7C0,640.6,76,538.2,181.8,500.5V288.8c0-152,121.7-275.6,271.4-275.6S724.5,136.8,724.5,288.8v118A272.3,272.3,0,0,1,839.6,486c71.4,6.2,136.2,40.7,181.8,93.8,139,11.8,248.6,130.4,248.6,274.6v187.5C1270,1402.4,985.1,1695.7,635,1695.7ZM271.8,755.4a7.6,7.6,0,0,0-1.8,5.3v281.2c0,211.6,163.7,383.8,365,383.8s365-172.2,365-383.8V854.4a8.1,8.1,0,0,0-1.7-5.2l-141.1,58L817.8,758.3a6.1,6.1,0,0,0-1.4-2.8L675.2,812.9,636,664.5a6.5,6.5,0,0,0-1.5-2.8l-180,65.8V288.8a8.2,8.2,0,0,0-1.3-4.7,7.5,7.5,0,0,0-1.4,4.7V821.4Zm545.8-.4Z"/><path class="cls-1" d="M635,1602c-300,0-544.1-251.3-544.1-560.1V760.7c0-100.3,80.9-181.9,180.5-181.9h1.3v-290c0-100.3,81-181.9,180.5-181.9s180.4,81.6,180.4,181.9V485.1H635c68.4,0,128,38.5,158.6,95.2a177.3,177.3,0,0,1,23.2-1.5c68.4,0,128,38.6,158.6,95.3a178.4,178.4,0,0,1,23.2-1.5c99.5,0,180.5,81.6,180.5,181.8v187.5C1179.1,1350.7,935,1602,635,1602ZM421.6,1223.8C471.9,1289.7,548.9,1332,635,1332c151.1,0,274.1-130.1,274.1-290.1v-5.6H542.7v187.5Z"/></g><g id="圖層_3" data-name="圖層 3"><path class="cls-2" d="M225.9,1041.9c0,234.4,183.5,425.1,409.1,425.1s409.1-190.7,409.1-425.1V854.4c0-25.8-20.4-46.8-45.5-46.8s-45.4,21-45.4,46.8v46.9H862.3V760.7c0-25.8-20.4-46.9-45.5-46.9s-45.4,21.1-45.4,46.9V901.3h-91V667c0-25.9-20.3-46.9-45.4-46.9s-45.5,21-45.5,46.9V901.3H498.6V288.8c0-25.8-20.3-46.9-45.4-46.9s-45.5,21.1-45.5,46.9v800H316.8V760.7c0-25.8-20.4-46.9-45.4-46.9s-45.5,21.1-45.5,46.9ZM1135,854.4v187.5c0,286.1-224.3,518.8-500,518.8S135,1328,135,1041.9V760.7c0-77.5,61.1-140.6,136.4-140.6a131.8,131.8,0,0,1,45.4,8.1V288.8c0-77.5,61.2-140.6,136.4-140.6s136.3,63.1,136.3,140.6V534.4a132,132,0,0,1,45.5-8.1c62.8,0,115.8,44,131.5,103.7a134.2,134.2,0,0,1,50.3-9.9c62.8,0,115.8,44,131.5,103.7a132.3,132.3,0,0,1,50.3-10C1073.8,713.8,1135,776.9,1135,854.4Z"/><path class="cls-2" d="M816.8,713.8c25.1,0,45.5,21.1,45.5,46.9V901.3h90.9V854.4c0-25.8,20.4-46.8,45.4-46.8s45.5,21,45.5,46.8v187.5c0,234.4-183.5,425.1-409.1,425.1s-409.1-190.7-409.1-425.1V760.7c0-25.8,20.4-46.9,45.5-46.9s45.4,21.1,45.4,46.9v328.1h90.9v-800c0-25.8,20.4-46.9,45.5-46.9s45.4,21.1,45.4,46.9V901.3h90.9V667c0-25.9,20.4-46.9,45.5-46.9s45.4,21,45.4,46.9V901.3h91V760.7C771.4,734.9,791.8,713.8,816.8,713.8Z"/><path class="cls-3" d="M225.9,1041.9c0,234.4,183.5,425.1,409.1,425.1s409.1-190.7,409.1-425.1V854.4c0-25.8-20.4-46.8-45.5-46.8s-45.4,21-45.4,46.8v46.9H862.3V760.7c0-25.8-20.4-46.9-45.5-46.9s-45.4,21.1-45.4,46.9V901.3h-91V667c0-25.9-20.3-46.9-45.4-46.9s-45.5,21-45.5,46.9V901.3H498.6V288.8c0-25.8-20.3-46.9-45.4-46.9s-45.5,21.1-45.5,46.9v800H316.8V760.7c0-25.8-20.4-46.9-45.4-46.9s-45.5,21.1-45.5,46.9ZM1135,854.4v187.5c0,286.1-224.3,518.8-500,518.8S135,1328,135,1041.9V760.7c0-77.5,61.1-140.6,136.4-140.6a131.8,131.8,0,0,1,45.4,8.1V288.8c0-77.5,61.2-140.6,136.4-140.6s136.3,63.1,136.3,140.6V534.4a132,132,0,0,1,45.5-8.1c62.8,0,115.8,44,131.5,103.7a134.2,134.2,0,0,1,50.3-9.9c62.8,0,115.8,44,131.5,103.7a132.3,132.3,0,0,1,50.3-10C1073.8,713.8,1135,776.9,1135,854.4Z"/><path class="cls-1" d="M816.8,713.8c25.1,0,45.5,21.1,45.5,46.9V901.3h90.9V854.4c0-25.8,20.4-46.8,45.4-46.8s45.5,21,45.5,46.8v187.5c0,234.4-183.5,425.1-409.1,425.1s-409.1-190.7-409.1-425.1V760.7c0-25.8,20.4-46.9,45.5-46.9s45.4,21.1,45.4,46.9v328.1h90.9v-800c0-25.8,20.4-46.9,45.5-46.9s45.4,21.1,45.4,46.9V901.3h90.9V667c0-25.9,20.4-46.9,45.5-46.9s45.4,21,45.4,46.9V901.3h91V760.7C771.4,734.9,791.8,713.8,816.8,713.8Z"/></g></svg>