<?xml version="1.0" encoding="utf-8"?>
<svg version="1.1" xmlns:xlink="http://www.w3.org/1999/xlink" width="21px" height="14px" xmlns="http://www.w3.org/2000/svg">
  <g transform="matrix(1 0 0 1 -928 -11 )">
    <path d="M 11.494399185336 13.2623655913978  C 10.974032586558 13.7541218637993  10.642566191446 14  10.5 14  C 10.357433808554 14  10.025967413442 13.7541218637993  9.50560081466395 13.2623655913978  C 8.98523421588595 12.7706093189964  8.72505091649695 12.457825567503  8.72505091649695 12.3240143369176  C 8.72505091649695 12.1099163679809  8.94781059063137 11.9292712066906  9.3933299389002 11.7820788530466  C 9.83884928716904 11.6348864994026  10.2077393075356 11.5612903225806  10.5 11.5612903225806  C 10.7922606924644 11.5612903225806  11.161150712831 11.6348864994026  11.6066700610998 11.7820788530466  C 12.0521894093686 11.9292712066906  12.2749490835031 12.1099163679809  12.2749490835031 12.3240143369176  C 12.2749490835031 12.457825567503  12.0147657841141 12.7706093189964  11.494399185336 13.2623655913978  Z M 14.3867107942974 10.5275985663082  C 13.8485234215886 11.0293906810036  13.5152749490835 11.2802867383513  13.3869653767821 11.2802867383513  C 13.3727087576375 11.2802867383513  13.2301425661914 11.1966547192354  12.959266802444 11.0293906810036  C 12.6883910386965 10.8621266427718  12.3266293279022 10.69486260454  11.8739816700611 10.5275985663082  C 11.42133401222 10.3603345280765  10.9633401221996 10.2767025089606  10.5 10.2767025089606  C 10.0366598778004 10.2767025089606  9.57866598778004 10.3603345280765  9.1260183299389 10.5275985663082  C 8.67337067209776 10.69486260454  8.31339103869654 10.8621266427718  8.04607942973523 11.0293906810036  C 7.77876782077393 11.1966547192354  7.63441955193483 11.2802867383513  7.61303462321792 11.2802867383513  C 7.4847250509165 11.2802867383513  7.15147657841141 11.0293906810036  6.61328920570265 10.5275985663082  C 6.07510183299389 10.0258064516129  5.80600814663951 9.71469534050179  5.80600814663951 9.59426523297491  C 5.80600814663951 9.50728793309439  5.84164969450102 9.43034647550776  5.91293279022403 9.36344086021505  C 6.46894093686354 8.84826762246117  7.16751527494908 8.44348864994026  8.00865580448065 8.14910394265233  C 8.84979633401222 7.8547192353644  9.68024439918534 7.70752688172043  10.5 7.70752688172043  C 11.3197556008147 7.70752688172043  12.1502036659878 7.8547192353644  12.9913441955193 8.14910394265233  C 13.8324847250509 8.44348864994026  14.5310590631365 8.84826762246117  15.087067209776 9.36344086021505  C 15.158350305499 9.43034647550776  15.1939918533605 9.50728793309439  15.1939918533605 9.59426523297491  C 15.1939918533605 9.71469534050179  14.9248981670061 10.0258064516129  14.3867107942974 10.5275985663082  Z M 17.2897148676171 7.79784946236559  C 16.7550916496945 8.29964157706093  16.4271894093686 8.5505376344086  16.3060081466395 8.5505376344086  C 16.2275967413442 8.5505376344086  16.1456211812627 8.52377538829152  16.0600814663951 8.47025089605735  C 15.0906313645621 7.76774193548387  14.1924643584521 7.25089605734767  13.3655804480652 6.91971326164875  C 12.5386965376782 6.58853046594982  11.5835030549898 6.42293906810036  10.5 6.42293906810036  C 9.89409368635438 6.42293906810036  9.28640529531568 6.49653524492234  8.67693482688391 6.64372759856631  C 8.06746435845214 6.79091995221027  7.53640529531568 6.96821983273596  7.08375763747454 7.17562724014337  C 6.6311099796334 7.38303464755078  6.2265784114053 7.59044205495818  5.87016293279022 7.79784946236559  C 5.51374745417515 8.005256869773  5.23217922606925 8.18255675029868  5.02545824847251 8.32974910394265  C 4.81873727087576 8.47694145758662  4.70824847250509 8.5505376344086  4.69399185336049 8.5505376344086  C 4.57281059063136 8.5505376344086  4.2449083503055 8.29964157706093  3.71028513238289 7.79784946236559  C 3.17566191446029 7.29605734767025  2.90835030549898 6.98494623655914  2.90835030549898 6.86451612903226  C 2.90835030549898 6.784229390681  2.94399185336049 6.71063321385902  3.0152749490835 6.64372759856631  C 3.95621181262729 5.76057347670251  5.09674134419552 5.07479091995221  6.43686354378819 4.58637992831541  C 7.77698574338086 4.09796893667861  9.13136456211813 3.85376344086021  10.5 3.85376344086021  C 11.8686354378819 3.85376344086021  13.2230142566191 4.09796893667861  14.5631364562118 4.58637992831541  C 15.9032586558045 5.07479091995221  17.0437881873727 5.76057347670251  17.9847250509165 6.64372759856631  C 18.0560081466395 6.71063321385902  18.091649694501 6.784229390681  18.091649694501 6.86451612903226  C 18.091649694501 6.98494623655914  17.8243380855397 7.29605734767025  17.2897148676171 7.79784946236559  Z M 20.1927189409369 5.07813620071685  C 19.6545315682281 5.57992831541219  19.3248472505092 5.83082437275986  19.20366598778 5.83082437275986  C 19.1252545824847 5.83082437275986  19.0468431771894 5.80071684587814  18.9684317718941 5.74050179211469  C 17.6924643584521 4.69008363201912  16.3683808553972 3.8989247311828  14.9961812627291 3.36702508960574  C 13.6239816700611 2.83512544802867  12.1252545824847 2.56917562724014  10.5 2.56917562724014  C 8.87474541751527 2.56917562724014  7.3760183299389 2.83512544802867  6.00381873727088 3.36702508960574  C 4.63161914460285 3.8989247311828  3.30753564154786 4.69008363201912  2.03156822810591 5.74050179211469  C 1.95315682281059 5.80071684587814  1.87474541751528 5.83082437275986  1.79633401221996 5.83082437275986  C 1.67515274949084 5.83082437275986  1.34546843177189 5.57992831541219  0.807281059063136 5.07813620071685  C 0.269093686354379 4.57634408602151  0 4.26523297491039  0 4.14480286738351  C 0 4.05782556750299  0.0356415478615072 3.98088410991637  0.106924643584521 3.91397849462366  C 1.43991853360489 2.66953405017921  3.02596741344196 1.70609318996416  4.86507128309572 1.02365591397849  C 6.70417515274949 0.341218637992831  8.58248472505092 0  10.5 0  C 12.4175152749491 0  14.2958248472505 0.341218637992831  16.1349287169043 1.02365591397849  C 17.974032586558 1.70609318996416  19.5600814663951 2.66953405017921  20.8930753564155 3.91397849462366  C 20.9643584521385 3.98088410991637  21 4.05782556750299  21 4.14480286738351  C 21 4.26523297491039  20.7309063136456 4.57634408602151  20.1927189409369 5.07813620071685  Z " fill-rule="nonzero" fill="#027db4" stroke="none" transform="matrix(1 0 0 1 928 11 )" />
  </g>
</svg>