<?xml version="1.0" encoding="utf-8"?>
<svg version="1.1" xmlns:xlink="http://www.w3.org/1999/xlink" width="18px" height="17px" xmlns="http://www.w3.org/2000/svg">
  <g transform="matrix(1 0 0 1 -997 -11 )">
    <path d="M 4.15384615384615 12.75  L 4.15384615384615 15.5833333333333  L 13.8461538461538 15.5833333333333  L 13.8461538461538 12.75  L 4.15384615384615 12.75  Z M 4.15384615384615 1.41666666666667  L 4.15384615384615 8.5  L 13.8461538461538 8.5  L 13.8461538461538 4.25  L 12.1153846153846 4.25  C 11.8269230769231 4.25  11.5817307692308 4.14670138888889  11.3798076923077 3.94010416666667  C 11.1778846153846 3.73350694444444  11.0769230769231 3.48263888888889  11.0769230769231 3.1875  L 11.0769230769231 1.41666666666667  L 4.15384615384615 1.41666666666667  Z M 16.4098557692308 9.70638020833333  C 16.546875 9.56618923611111  16.6153846153846 9.40017361111111  16.6153846153846 9.20833333333333  C 16.6153846153846 9.01649305555556  16.546875 8.85047743055556  16.4098557692308 8.71028645833333  C 16.2728365384615 8.57009548611111  16.1105769230769 8.5  15.9230769230769 8.5  C 15.7355769230769 8.5  15.5733173076923 8.57009548611111  15.4362980769231 8.71028645833333  C 15.2992788461538 8.85047743055556  15.2307692307692 9.01649305555556  15.2307692307692 9.20833333333333  C 15.2307692307692 9.40017361111111  15.2992788461538 9.56618923611111  15.4362980769231 9.70638020833333  C 15.5733173076923 9.84657118055556  15.7355769230769 9.91666666666667  15.9230769230769 9.91666666666667  C 16.1105769230769 9.91666666666667  16.2728365384615 9.84657118055556  16.4098557692308 9.70638020833333  Z M 17.3888221153846 7.70865885416667  C 17.7962740384615 8.12554253472222  18 8.62543402777778  18 9.20833333333333  L 18 13.8125  C 18 13.9084201388889  17.9657451923077 13.9914279513889  17.8972355769231 14.0615234375  C 17.8287259615385 14.1316189236111  17.7475961538462 14.1666666666667  17.6538461538462 14.1666666666667  L 15.2307692307692 14.1666666666667  L 15.2307692307692 15.9375  C 15.2307692307692 16.2326388888889  15.1298076923077 16.4835069444444  14.9278846153846 16.6901041666667  C 14.7259615384615 16.8967013888889  14.4807692307692 17  14.1923076923077 17  L 3.80769230769231 17  C 3.51923076923077 17  3.27403846153846 16.8967013888889  3.07211538461538 16.6901041666667  C 2.87019230769231 16.4835069444444  2.76923076923077 16.2326388888889  2.76923076923077 15.9375  L 2.76923076923077 14.1666666666667  L 0.346153846153846 14.1666666666667  C 0.252403846153846 14.1666666666667  0.171274038461538 14.1316189236111  0.102764423076923 14.0615234375  C 0.0342548076923077 13.9914279513889  0 13.9084201388889  0 13.8125  L 0 9.20833333333333  C 0 8.62543402777778  0.203725961538462 8.12554253472222  0.611177884615385 7.70865885416667  C 1.01862980769231 7.29177517361111  1.50721153846154 7.08333333333333  2.07692307692308 7.08333333333333  L 2.76923076923077 7.08333333333333  L 2.76923076923077 1.0625  C 2.76923076923077 0.76736111111111  2.87019230769231 0.516493055555553  3.07211538461538 0.309895833333333  C 3.27403846153846 0.10329861111111  3.51923076923077 0  3.80769230769231 0  L 11.0769230769231 0  C 11.3653846153846 0  11.6826923076923 0.0737847222222205  12.0288461538462 0.221354166666667  C 12.375 0.36892361111111  12.6490384615385 0.546006944444443  12.8509615384615 0.752604166666667  L 14.4951923076923 2.43489583333333  C 14.6971153846154 2.64149305555555  14.8701923076923 2.921875  15.0144230769231 3.27604166666667  C 15.1586538461538 3.63020833333333  15.2307692307692 3.95486111111111  15.2307692307692 4.25  L 15.2307692307692 7.08333333333333  L 15.9230769230769 7.08333333333333  C 16.4927884615385 7.08333333333333  16.9813701923077 7.29177517361111  17.3888221153846 7.70865885416667  Z " fill-rule="nonzero" fill="#027db4" stroke="none" transform="matrix(1 0 0 1 997 11 )" />
  </g>
</svg>