<?xml version="1.0" encoding="utf-8"?>
<svg version="1.1" xmlns:xlink="http://www.w3.org/1999/xlink" width="20px" height="20px" xmlns="http://www.w3.org/2000/svg">
  <g transform="matrix(1 0 0 1 -964 -8 )">
    <path d="M 4.72403560830861 11.513353115727  L 11.513353115727 4.72403560830861  L 15.2640949554896 8.47477744807122  L 8.47477744807122 15.2640949554896  L 4.72403560830861 11.513353115727  Z M 8.47477744807122 16.5578635014837  C 8.68842729970327 16.5578635014837  8.86646884272997 16.486646884273  9.00890207715134 16.3442136498516  L 16.3442136498516 9.00890207715134  C 16.4945598417409 8.85855588526212  16.5697329376855 8.68051434223541  16.5697329376855 8.47477744807122  C 16.5697329376855 8.26904055390702  16.4945598417409 8.09099901088032  16.3442136498516 7.9406528189911  L 12.0474777448071 3.64391691394659  C 11.9050445103858 3.50148367952522  11.7270029673591 3.43026706231454  11.513353115727 3.43026706231454  C 11.299703264095 3.43026706231454  11.1216617210683 3.50148367952522  10.9792284866469 3.64391691394659  L 3.64391691394659 10.9792284866469  C 3.49357072205737 11.1295746785361  3.41839762611276 11.3076162215628  3.41839762611276 11.513353115727  C 3.41839762611276 11.7190900098912  3.49357072205737 11.8971315529179  3.64391691394659 12.0474777448071  L 7.9406528189911 16.3442136498516  C 8.08308605341246 16.486646884273  8.26112759643917 16.5578635014837  8.47477744807122 16.5578635014837  Z M 20 7.70919881305638  C 20 8.13254203758655  19.8536102868447 8.49060336300692  19.5608308605341 8.78338278931751  L 8.79525222551929 19.5608308605341  C 8.5024727992087 19.8536102868447  8.14441147378833 20  7.72106824925816 20  C 7.29772502472799 20  6.93966369930762 19.8536102868447  6.64688427299703 19.5608308605341  L 5.1513353115727 18.0652818991098  C 5.5944609297725 17.62215628091  5.8160237388724 17.0840751730959  5.8160237388724 16.4510385756677  C 5.8160237388724 15.8180019782394  5.5944609297725 15.2799208704253  5.1513353115727 14.8367952522255  C 4.7082096933729 14.3936696340257  4.17012858555885 14.1721068249258  3.53709198813056 14.1721068249258  C 2.90405539070228 14.1721068249258  2.36597428288823 14.3936696340257  1.92284866468843 14.8367952522255  L 0.439169139465875 13.3412462908012  C 0.146389713155292 13.0484668644906  0 12.6904055390702  0 12.2670623145401  C 0 11.8437190900099  0.146389713155292 11.4856577645895  0.439169139465875 11.1928783382789  L 11.2047477744807 0.439169139465876  C 11.4975272007913 0.14638971315529  11.8555885262117 0  12.2789317507418 0  C 12.702274975272 0  13.0603363006924 0.14638971315529  13.353115727003 0.439169139465876  L 14.8367952522255 1.92284866468843  C 14.3936696340257 2.36597428288823  14.1721068249258 2.90405539070227  14.1721068249258 3.53709198813056  C 14.1721068249258 4.17012858555885  14.3936696340257 4.7082096933729  14.8367952522255 5.1513353115727  C 15.2799208704253 5.5944609297725  15.8180019782394 5.8160237388724  16.4510385756677 5.8160237388724  C 17.0840751730959 5.8160237388724  17.62215628091 5.5944609297725  18.0652818991098 5.1513353115727  L 19.5608308605341 6.63501483679525  C 19.8536102868447 6.92779426310583  20 7.28585558852621  20 7.70919881305638  Z " fill-rule="nonzero" fill="#027db4" stroke="none" transform="matrix(1 0 0 1 964 8 )" />
  </g>
</svg>