<svg height="441pt" viewBox="-32 0 441 441.73333" width="441pt" xmlns="http://www.w3.org/2000/svg"><path d="m35.699219 15.066406h21.335937v181.332032h-21.335937zm0 0"/><path d="m77.300781 61.066406-30.933593-30.933594-30.933594 30.933594-15.066406-15.066406 46-46 46 46zm0 0"/><path d="m46.367188 211.464844-46-46 15.066406-15.066406 30.933594 30.933593 30.933593-30.933593 15.066407 15.066406zm0 0"/><path d="m260.765625 441.734375c-31.066406 0-60.265625-12.132813-82.265625-34l-109.464844-109.601563c-7.734375-7.734374-12-18-12-28.933593 0-22.53125 18.265625-40.800781 40.796875-40.800781 10.933594 0 21.203125 4.269531 28.933594 12l26.269531 26.269531v-191.46875c0-19.734375 14.664063-36.800781 33.464844-38.664063 10.667969-1.070312 21.066406 2.398438 28.800781 9.464844 7.867188 7.066406 12.265625 17.199219 12.265625 27.734375v124.265625l114.667969 19.332031c20.265625 4 34.664063 21.601563 34.664063 41.867188v66.132812c.136718 64.269531-52 116.402344-116.132813 116.402344zm-162.933594-192c-10.796875 0-19.464843 8.800781-19.464843 19.464844 0 5.199219 2.132812 10.132812 5.734374 13.734375l109.597657 109.601562c17.867187 17.863282 41.734375 27.863282 67.066406 27.863282 52.402344 0 94.933594-42.53125 94.933594-94.933594v-66.132813c0-10.132812-7.199219-18.933593-17.199219-20.933593l-132.132812-22.265626v-142.398437c0-4.535156-1.867188-8.800781-5.332032-11.867187-3.335937-3.066407-7.867187-4.535157-12.402344-4-8 .800781-14.265624 8.53125-14.265624 17.464843v242.933594l-62.667969-62.664063c-3.734375-3.867187-8.664063-5.867187-13.867188-5.867187zm0 0"/></svg>